<svg xmlns="http://www.w3.org/2000/svg" viewBox="0 0 1200 630" width="1200" height="630" role="img" aria-label="Tech Internships (2026 &amp; 2027)">
  <defs>
    <radialGradient id="og" cx="0.8" cy="0.0" r="1.1">
      <stop offset="0" stop-color="#E879A3" stop-opacity="0.20"/>
      <stop offset="0.55" stop-color="#E879A3" stop-opacity="0"/>
    </radialGradient>
  </defs>
  <rect width="1200" height="630" fill="#0A0A0E"/>
  <rect width="1200" height="630" fill="url(#og)"/>
  <circle cx="720" cy="90" r="1.4" fill="#F5F1EB" fill-opacity="0.06"/><circle cx="750" cy="90" r="1.4" fill="#F5F1EB" fill-opacity="0.06"/><circle cx="780" cy="90" r="1.4" fill="#F5F1EB" fill-opacity="0.06"/><circle cx="810" cy="90" r="1.4" fill="#F5F1EB" fill-opacity="0.06"/><circle cx="840" cy="90" r="1.4" fill="#F5F1EB" fill-opacity="0.06"/><circle cx="870" cy="90" r="1.4" fill="#F5F1EB" fill-opacity="0.06"/><circle cx="900" cy="90" r="1.4" fill="#F5F1EB" fill-opacity="0.06"/><circle cx="930" cy="90" r="1.4" fill="#F5F1EB" fill-opacity="0.06"/><circle cx="960" cy="90" r="1.4" fill="#F5F1EB" fill-opacity="0.06"/><circle cx="990" cy="90" r="1.4" fill="#F5F1EB" fill-opacity="0.06"/><circle cx="1020" cy="90" r="1.4" fill="#F5F1EB" fill-opacity="0.06"/><circle cx="1050" cy="90" r="1.4" fill="#F5F1EB" fill-opacity="0.06"/><circle cx="1080" cy="90" r="1.4" fill="#F5F1EB" fill-opacity="0.06"/><circle cx="1110" cy="90" r="1.4" fill="#F5F1EB" fill-opacity="0.06"/><circle cx="1140" cy="90" r="1.4" fill="#F5F1EB" fill-opacity="0.06"/><circle cx="1170" cy="90" r="1.4" fill="#F5F1EB" fill-opacity="0.06"/><circle cx="720" cy="120" r="1.4" fill="#F5F1EB" fill-opacity="0.06"/><circle cx="750" cy="120" r="1.4" fill="#F5F1EB" fill-opacity="0.06"/><circle cx="780" cy="120" r="1.4" fill="#F5F1EB" fill-opacity="0.06"/><circle cx="810" cy="120" r="1.4" fill="#F5F1EB" fill-opacity="0.06"/><circle cx="840" cy="120" r="1.4" fill="#F5F1EB" fill-opacity="0.06"/><circle cx="870" cy="120" r="1.4" fill="#F5F1EB" fill-opacity="0.06"/><circle cx="900" cy="120" r="1.4" fill="#F5F1EB" fill-opacity="0.06"/><circle cx="930" cy="120" r="1.4" fill="#F5F1EB" fill-opacity="0.06"/><circle cx="960" cy="120" r="1.4" fill="#F5F1EB" fill-opacity="0.06"/><circle cx="990" cy="120" r="1.4" fill="#F5F1EB" fill-opacity="0.06"/><circle cx="1020" cy="120" r="1.4" fill="#F5F1EB" fill-opacity="0.06"/><circle cx="1050" cy="120" r="1.4" fill="#F5F1EB" fill-opacity="0.06"/><circle cx="1080" cy="120" r="1.4" fill="#F5F1EB" fill-opacity="0.06"/><circle cx="1110" cy="120" r="1.4" fill="#F5F1EB" fill-opacity="0.06"/><circle cx="1140" cy="120" r="1.4" fill="#F5F1EB" fill-opacity="0.06"/><circle cx="1170" cy="120" r="1.4" fill="#F5F1EB" fill-opacity="0.06"/><circle cx="720" cy="150" r="1.4" fill="#F5F1EB" fill-opacity="0.06"/><circle cx="750" cy="150" r="1.4" fill="#F5F1EB" fill-opacity="0.06"/><circle cx="780" cy="150" r="1.4" fill="#F5F1EB" fill-opacity="0.06"/><circle cx="810" cy="150" r="1.4" fill="#F5F1EB" fill-opacity="0.06"/><circle cx="840" cy="150" r="1.4" fill="#F5F1EB" fill-opacity="0.06"/><circle cx="870" cy="150" r="1.4" fill="#F5F1EB" fill-opacity="0.06"/><circle cx="900" cy="150" r="1.4" fill="#F5F1EB" fill-opacity="0.06"/><circle cx="930" cy="150" r="1.4" fill="#F5F1EB" fill-opacity="0.06"/><circle cx="960" cy="150" r="1.4" fill="#F5F1EB" fill-opacity="0.06"/><circle cx="990" cy="150" r="1.4" fill="#F5F1EB" fill-opacity="0.06"/><circle cx="1020" cy="150" r="1.4" fill="#F5F1EB" fill-opacity="0.06"/><circle cx="1050" cy="150" r="1.4" fill="#F5F1EB" fill-opacity="0.06"/><circle cx="1080" cy="150" r="1.4" fill="#F5F1EB" fill-opacity="0.06"/><circle cx="1110" cy="150" r="1.4" fill="#F5F1EB" fill-opacity="0.06"/><circle cx="1140" cy="150" r="1.4" fill="#F5F1EB" fill-opacity="0.06"/><circle cx="1170" cy="150" r="1.4" fill="#F5F1EB" fill-opacity="0.06"/><circle cx="720" cy="180" r="1.4" fill="#F5F1EB" fill-opacity="0.06"/><circle cx="750" cy="180" r="1.4" fill="#F5F1EB" fill-opacity="0.06"/><circle cx="780" cy="180" r="1.4" fill="#F5F1EB" fill-opacity="0.06"/><circle cx="810" cy="180" r="1.4" fill="#F5F1EB" fill-opacity="0.06"/><circle cx="840" cy="180" r="1.4" fill="#F5F1EB" fill-opacity="0.06"/><circle cx="870" cy="180" r="1.4" fill="#F5F1EB" fill-opacity="0.06"/><circle cx="900" cy="180" r="1.4" fill="#F5F1EB" fill-opacity="0.06"/><circle cx="930" cy="180" r="1.4" fill="#F5F1EB" fill-opacity="0.06"/><circle cx="960" cy="180" r="1.4" fill="#F5F1EB" fill-opacity="0.06"/><circle cx="990" cy="180" r="1.4" fill="#F5F1EB" fill-opacity="0.06"/><circle cx="1020" cy="180" r="1.4" fill="#F5F1EB" fill-opacity="0.06"/><circle cx="1050" cy="180" r="1.4" fill="#F5F1EB" fill-opacity="0.06"/><circle cx="1080" cy="180" r="1.4" fill="#F5F1EB" fill-opacity="0.06"/><circle cx="1110" cy="180" r="1.4" fill="#F5F1EB" fill-opacity="0.06"/><circle cx="1140" cy="180" r="1.4" fill="#F5F1EB" fill-opacity="0.06"/><circle cx="1170" cy="180" r="1.4" fill="#F5F1EB" fill-opacity="0.06"/><circle cx="720" cy="210" r="1.4" fill="#F5F1EB" fill-opacity="0.06"/><circle cx="750" cy="210" r="1.4" fill="#F5F1EB" fill-opacity="0.06"/><circle cx="780" cy="210" r="1.4" fill="#F5F1EB" fill-opacity="0.06"/><circle cx="810" cy="210" r="1.4" fill="#F5F1EB" fill-opacity="0.06"/><circle cx="840" cy="210" r="1.4" fill="#F5F1EB" fill-opacity="0.06"/><circle cx="870" cy="210" r="1.4" fill="#F5F1EB" fill-opacity="0.06"/><circle cx="900" cy="210" r="1.4" fill="#F5F1EB" fill-opacity="0.06"/><circle cx="930" cy="210" r="1.4" fill="#F5F1EB" fill-opacity="0.06"/><circle cx="960" cy="210" r="1.4" fill="#F5F1EB" fill-opacity="0.06"/><circle cx="990" cy="210" r="1.4" fill="#F5F1EB" fill-opacity="0.06"/><circle cx="1020" cy="210" r="1.4" fill="#F5F1EB" fill-opacity="0.06"/><circle cx="1050" cy="210" r="1.4" fill="#F5F1EB" fill-opacity="0.06"/><circle cx="1080" cy="210" r="1.4" fill="#F5F1EB" fill-opacity="0.06"/><circle cx="1110" cy="210" r="1.4" fill="#F5F1EB" fill-opacity="0.06"/><circle cx="1140" cy="210" r="1.4" fill="#F5F1EB" fill-opacity="0.06"/><circle cx="1170" cy="210" r="1.4" fill="#F5F1EB" fill-opacity="0.06"/><circle cx="720" cy="240" r="1.4" fill="#F5F1EB" fill-opacity="0.06"/><circle cx="750" cy="240" r="1.4" fill="#F5F1EB" fill-opacity="0.06"/><circle cx="780" cy="240" r="1.4" fill="#F5F1EB" fill-opacity="0.06"/><circle cx="810" cy="240" r="1.4" fill="#F5F1EB" fill-opacity="0.06"/><circle cx="840" cy="240" r="1.4" fill="#F5F1EB" fill-opacity="0.06"/><circle cx="870" cy="240" r="1.4" fill="#F5F1EB" fill-opacity="0.06"/><circle cx="900" cy="240" r="1.4" fill="#F5F1EB" fill-opacity="0.06"/><circle cx="930" cy="240" r="1.4" fill="#F5F1EB" fill-opacity="0.06"/><circle cx="960" cy="240" r="1.4" fill="#F5F1EB" fill-opacity="0.06"/><circle cx="990" cy="240" r="1.4" fill="#F5F1EB" fill-opacity="0.06"/><circle cx="1020" cy="240" r="1.4" fill="#F5F1EB" fill-opacity="0.06"/><circle cx="1050" cy="240" r="1.4" fill="#F5F1EB" fill-opacity="0.06"/><circle cx="1080" cy="240" r="1.4" fill="#F5F1EB" fill-opacity="0.06"/><circle cx="1110" cy="240" r="1.4" fill="#F5F1EB" fill-opacity="0.06"/><circle cx="1140" cy="240" r="1.4" fill="#F5F1EB" fill-opacity="0.06"/><circle cx="1170" cy="240" r="1.4" fill="#F5F1EB" fill-opacity="0.06"/><circle cx="720" cy="270" r="1.4" fill="#F5F1EB" fill-opacity="0.06"/><circle cx="750" cy="270" r="1.4" fill="#F5F1EB" fill-opacity="0.06"/><circle cx="780" cy="270" r="1.4" fill="#F5F1EB" fill-opacity="0.06"/><circle cx="810" cy="270" r="1.4" fill="#F5F1EB" fill-opacity="0.06"/><circle cx="840" cy="270" r="1.4" fill="#F5F1EB" fill-opacity="0.06"/><circle cx="870" cy="270" r="1.4" fill="#F5F1EB" fill-opacity="0.06"/><circle cx="900" cy="270" r="1.4" fill="#F5F1EB" fill-opacity="0.06"/><circle cx="930" cy="270" r="1.4" fill="#F5F1EB" fill-opacity="0.06"/><circle cx="960" cy="270" r="1.4" fill="#F5F1EB" fill-opacity="0.06"/><circle cx="990" cy="270" r="1.4" fill="#F5F1EB" fill-opacity="0.06"/><circle cx="1020" cy="270" r="1.4" fill="#F5F1EB" fill-opacity="0.06"/><circle cx="1050" cy="270" r="1.4" fill="#F5F1EB" fill-opacity="0.06"/><circle cx="1080" cy="270" r="1.4" fill="#F5F1EB" fill-opacity="0.06"/><circle cx="1110" cy="270" r="1.4" fill="#F5F1EB" fill-opacity="0.06"/><circle cx="1140" cy="270" r="1.4" fill="#F5F1EB" fill-opacity="0.06"/><circle cx="1170" cy="270" r="1.4" fill="#F5F1EB" fill-opacity="0.06"/><circle cx="720" cy="300" r="1.4" fill="#F5F1EB" fill-opacity="0.06"/><circle cx="750" cy="300" r="1.4" fill="#F5F1EB" fill-opacity="0.06"/><circle cx="780" cy="300" r="1.4" fill="#F5F1EB" fill-opacity="0.06"/><circle cx="810" cy="300" r="1.4" fill="#F5F1EB" fill-opacity="0.06"/><circle cx="840" cy="300" r="1.4" fill="#F5F1EB" fill-opacity="0.06"/><circle cx="870" cy="300" r="1.4" fill="#F5F1EB" fill-opacity="0.06"/><circle cx="900" cy="300" r="1.4" fill="#F5F1EB" fill-opacity="0.06"/><circle cx="930" cy="300" r="1.4" fill="#F5F1EB" fill-opacity="0.06"/><circle cx="960" cy="300" r="1.4" fill="#F5F1EB" fill-opacity="0.06"/><circle cx="990" cy="300" r="1.4" fill="#F5F1EB" fill-opacity="0.06"/><circle cx="1020" cy="300" r="1.4" fill="#F5F1EB" fill-opacity="0.06"/><circle cx="1050" cy="300" r="1.4" fill="#F5F1EB" fill-opacity="0.06"/><circle cx="1080" cy="300" r="1.4" fill="#F5F1EB" fill-opacity="0.06"/><circle cx="1110" cy="300" r="1.4" fill="#F5F1EB" fill-opacity="0.06"/><circle cx="1140" cy="300" r="1.4" fill="#F5F1EB" fill-opacity="0.06"/><circle cx="1170" cy="300" r="1.4" fill="#F5F1EB" fill-opacity="0.06"/><circle cx="720" cy="330" r="1.4" fill="#F5F1EB" fill-opacity="0.06"/><circle cx="750" cy="330" r="1.4" fill="#F5F1EB" fill-opacity="0.06"/><circle cx="780" cy="330" r="1.4" fill="#F5F1EB" fill-opacity="0.06"/><circle cx="810" cy="330" r="1.4" fill="#F5F1EB" fill-opacity="0.06"/><circle cx="840" cy="330" r="1.4" fill="#F5F1EB" fill-opacity="0.06"/><circle cx="870" cy="330" r="1.4" fill="#F5F1EB" fill-opacity="0.06"/><circle cx="900" cy="330" r="1.4" fill="#F5F1EB" fill-opacity="0.06"/><circle cx="930" cy="330" r="1.4" fill="#F5F1EB" fill-opacity="0.06"/><circle cx="960" cy="330" r="1.4" fill="#F5F1EB" fill-opacity="0.06"/><circle cx="990" cy="330" r="1.4" fill="#F5F1EB" fill-opacity="0.06"/><circle cx="1020" cy="330" r="1.4" fill="#F5F1EB" fill-opacity="0.06"/><circle cx="1050" cy="330" r="1.4" fill="#F5F1EB" fill-opacity="0.06"/><circle cx="1080" cy="330" r="1.4" fill="#F5F1EB" fill-opacity="0.06"/><circle cx="1110" cy="330" r="1.4" fill="#F5F1EB" fill-opacity="0.06"/><circle cx="1140" cy="330" r="1.4" fill="#F5F1EB" fill-opacity="0.06"/><circle cx="1170" cy="330" r="1.4" fill="#F5F1EB" fill-opacity="0.06"/><circle cx="720" cy="360" r="1.4" fill="#F5F1EB" fill-opacity="0.06"/><circle cx="750" cy="360" r="1.4" fill="#F5F1EB" fill-opacity="0.06"/><circle cx="780" cy="360" r="1.4" fill="#F5F1EB" fill-opacity="0.06"/><circle cx="810" cy="360" r="1.4" fill="#F5F1EB" fill-opacity="0.06"/><circle cx="840" cy="360" r="1.4" fill="#F5F1EB" fill-opacity="0.06"/><circle cx="870" cy="360" r="1.4" fill="#F5F1EB" fill-opacity="0.06"/><circle cx="900" cy="360" r="1.4" fill="#F5F1EB" fill-opacity="0.06"/><circle cx="930" cy="360" r="1.4" fill="#F5F1EB" fill-opacity="0.06"/><circle cx="960" cy="360" r="1.4" fill="#F5F1EB" fill-opacity="0.06"/><circle cx="990" cy="360" r="1.4" fill="#F5F1EB" fill-opacity="0.06"/><circle cx="1020" cy="360" r="1.4" fill="#F5F1EB" fill-opacity="0.06"/><circle cx="1050" cy="360" r="1.4" fill="#F5F1EB" fill-opacity="0.06"/><circle cx="1080" cy="360" r="1.4" fill="#F5F1EB" fill-opacity="0.06"/><circle cx="1110" cy="360" r="1.4" fill="#F5F1EB" fill-opacity="0.06"/><circle cx="1140" cy="360" r="1.4" fill="#F5F1EB" fill-opacity="0.06"/><circle cx="1170" cy="360" r="1.4" fill="#F5F1EB" fill-opacity="0.06"/><circle cx="720" cy="390" r="1.4" fill="#F5F1EB" fill-opacity="0.06"/><circle cx="750" cy="390" r="1.4" fill="#F5F1EB" fill-opacity="0.06"/><circle cx="780" cy="390" r="1.4" fill="#F5F1EB" fill-opacity="0.06"/><circle cx="810" cy="390" r="1.4" fill="#F5F1EB" fill-opacity="0.06"/><circle cx="840" cy="390" r="1.4" fill="#F5F1EB" fill-opacity="0.06"/><circle cx="870" cy="390" r="1.4" fill="#F5F1EB" fill-opacity="0.06"/><circle cx="900" cy="390" r="1.4" fill="#F5F1EB" fill-opacity="0.06"/><circle cx="930" cy="390" r="1.4" fill="#F5F1EB" fill-opacity="0.06"/><circle cx="960" cy="390" r="1.4" fill="#F5F1EB" fill-opacity="0.06"/><circle cx="990" cy="390" r="1.4" fill="#F5F1EB" fill-opacity="0.06"/><circle cx="1020" cy="390" r="1.4" fill="#F5F1EB" fill-opacity="0.06"/><circle cx="1050" cy="390" r="1.4" fill="#F5F1EB" fill-opacity="0.06"/><circle cx="1080" cy="390" r="1.4" fill="#F5F1EB" fill-opacity="0.06"/><circle cx="1110" cy="390" r="1.4" fill="#F5F1EB" fill-opacity="0.06"/><circle cx="1140" cy="390" r="1.4" fill="#F5F1EB" fill-opacity="0.06"/><circle cx="1170" cy="390" r="1.4" fill="#F5F1EB" fill-opacity="0.06"/><circle cx="720" cy="420" r="1.4" fill="#F5F1EB" fill-opacity="0.06"/><circle cx="750" cy="420" r="1.4" fill="#F5F1EB" fill-opacity="0.06"/><circle cx="780" cy="420" r="1.4" fill="#F5F1EB" fill-opacity="0.06"/><circle cx="810" cy="420" r="1.4" fill="#F5F1EB" fill-opacity="0.06"/><circle cx="840" cy="420" r="1.4" fill="#F5F1EB" fill-opacity="0.06"/><circle cx="870" cy="420" r="1.4" fill="#F5F1EB" fill-opacity="0.06"/><circle cx="900" cy="420" r="1.4" fill="#F5F1EB" fill-opacity="0.06"/><circle cx="930" cy="420" r="1.4" fill="#F5F1EB" fill-opacity="0.06"/><circle cx="960" cy="420" r="1.4" fill="#F5F1EB" fill-opacity="0.06"/><circle cx="990" cy="420" r="1.4" fill="#F5F1EB" fill-opacity="0.06"/><circle cx="1020" cy="420" r="1.4" fill="#F5F1EB" fill-opacity="0.06"/><circle cx="1050" cy="420" r="1.4" fill="#F5F1EB" fill-opacity="0.06"/><circle cx="1080" cy="420" r="1.4" fill="#F5F1EB" fill-opacity="0.06"/><circle cx="1110" cy="420" r="1.4" fill="#F5F1EB" fill-opacity="0.06"/><circle cx="1140" cy="420" r="1.4" fill="#F5F1EB" fill-opacity="0.06"/><circle cx="1170" cy="420" r="1.4" fill="#F5F1EB" fill-opacity="0.06"/><circle cx="720" cy="450" r="1.4" fill="#F5F1EB" fill-opacity="0.06"/><circle cx="750" cy="450" r="1.4" fill="#F5F1EB" fill-opacity="0.06"/><circle cx="780" cy="450" r="1.4" fill="#F5F1EB" fill-opacity="0.06"/><circle cx="810" cy="450" r="1.4" fill="#F5F1EB" fill-opacity="0.06"/><circle cx="840" cy="450" r="1.4" fill="#F5F1EB" fill-opacity="0.06"/><circle cx="870" cy="450" r="1.4" fill="#F5F1EB" fill-opacity="0.06"/><circle cx="900" cy="450" r="1.4" fill="#F5F1EB" fill-opacity="0.06"/><circle cx="930" cy="450" r="1.4" fill="#F5F1EB" fill-opacity="0.06"/><circle cx="960" cy="450" r="1.4" fill="#F5F1EB" fill-opacity="0.06"/><circle cx="990" cy="450" r="1.4" fill="#F5F1EB" fill-opacity="0.06"/><circle cx="1020" cy="450" r="1.4" fill="#F5F1EB" fill-opacity="0.06"/><circle cx="1050" cy="450" r="1.4" fill="#F5F1EB" fill-opacity="0.06"/><circle cx="1080" cy="450" r="1.4" fill="#F5F1EB" fill-opacity="0.06"/><circle cx="1110" cy="450" r="1.4" fill="#F5F1EB" fill-opacity="0.06"/><circle cx="1140" cy="450" r="1.4" fill="#F5F1EB" fill-opacity="0.06"/><circle cx="1170" cy="450" r="1.4" fill="#F5F1EB" fill-opacity="0.06"/><circle cx="720" cy="480" r="1.4" fill="#F5F1EB" fill-opacity="0.06"/><circle cx="750" cy="480" r="1.4" fill="#F5F1EB" fill-opacity="0.06"/><circle cx="780" cy="480" r="1.4" fill="#F5F1EB" fill-opacity="0.06"/><circle cx="810" cy="480" r="1.4" fill="#F5F1EB" fill-opacity="0.06"/><circle cx="840" cy="480" r="1.4" fill="#F5F1EB" fill-opacity="0.06"/><circle cx="870" cy="480" r="1.4" fill="#F5F1EB" fill-opacity="0.06"/><circle cx="900" cy="480" r="1.4" fill="#F5F1EB" fill-opacity="0.06"/><circle cx="930" cy="480" r="1.4" fill="#F5F1EB" fill-opacity="0.06"/><circle cx="960" cy="480" r="1.4" fill="#F5F1EB" fill-opacity="0.06"/><circle cx="990" cy="480" r="1.4" fill="#F5F1EB" fill-opacity="0.06"/><circle cx="1020" cy="480" r="1.4" fill="#F5F1EB" fill-opacity="0.06"/><circle cx="1050" cy="480" r="1.4" fill="#F5F1EB" fill-opacity="0.06"/><circle cx="1080" cy="480" r="1.4" fill="#F5F1EB" fill-opacity="0.06"/><circle cx="1110" cy="480" r="1.4" fill="#F5F1EB" fill-opacity="0.06"/><circle cx="1140" cy="480" r="1.4" fill="#F5F1EB" fill-opacity="0.06"/><circle cx="1170" cy="480" r="1.4" fill="#F5F1EB" fill-opacity="0.06"/><circle cx="720" cy="510" r="1.4" fill="#F5F1EB" fill-opacity="0.06"/><circle cx="750" cy="510" r="1.4" fill="#F5F1EB" fill-opacity="0.06"/><circle cx="780" cy="510" r="1.4" fill="#F5F1EB" fill-opacity="0.06"/><circle cx="810" cy="510" r="1.4" fill="#F5F1EB" fill-opacity="0.06"/><circle cx="840" cy="510" r="1.4" fill="#F5F1EB" fill-opacity="0.06"/><circle cx="870" cy="510" r="1.4" fill="#F5F1EB" fill-opacity="0.06"/><circle cx="900" cy="510" r="1.4" fill="#F5F1EB" fill-opacity="0.06"/><circle cx="930" cy="510" r="1.4" fill="#F5F1EB" fill-opacity="0.06"/><circle cx="960" cy="510" r="1.4" fill="#F5F1EB" fill-opacity="0.06"/><circle cx="990" cy="510" r="1.4" fill="#F5F1EB" fill-opacity="0.06"/><circle cx="1020" cy="510" r="1.4" fill="#F5F1EB" fill-opacity="0.06"/><circle cx="1050" cy="510" r="1.4" fill="#F5F1EB" fill-opacity="0.06"/><circle cx="1080" cy="510" r="1.4" fill="#F5F1EB" fill-opacity="0.06"/><circle cx="1110" cy="510" r="1.4" fill="#F5F1EB" fill-opacity="0.06"/><circle cx="1140" cy="510" r="1.4" fill="#F5F1EB" fill-opacity="0.06"/><circle cx="1170" cy="510" r="1.4" fill="#F5F1EB" fill-opacity="0.06"/><circle cx="720" cy="540" r="1.4" fill="#F5F1EB" fill-opacity="0.06"/><circle cx="750" cy="540" r="1.4" fill="#F5F1EB" fill-opacity="0.06"/><circle cx="780" cy="540" r="1.4" fill="#F5F1EB" fill-opacity="0.06"/><circle cx="810" cy="540" r="1.4" fill="#F5F1EB" fill-opacity="0.06"/><circle cx="840" cy="540" r="1.4" fill="#F5F1EB" fill-opacity="0.06"/><circle cx="870" cy="540" r="1.4" fill="#F5F1EB" fill-opacity="0.06"/><circle cx="900" cy="540" r="1.4" fill="#F5F1EB" fill-opacity="0.06"/><circle cx="930" cy="540" r="1.4" fill="#F5F1EB" fill-opacity="0.06"/><circle cx="960" cy="540" r="1.4" fill="#F5F1EB" fill-opacity="0.06"/><circle cx="990" cy="540" r="1.4" fill="#F5F1EB" fill-opacity="0.06"/><circle cx="1020" cy="540" r="1.4" fill="#F5F1EB" fill-opacity="0.06"/><circle cx="1050" cy="540" r="1.4" fill="#F5F1EB" fill-opacity="0.06"/><circle cx="1080" cy="540" r="1.4" fill="#F5F1EB" fill-opacity="0.06"/><circle cx="1110" cy="540" r="1.4" fill="#F5F1EB" fill-opacity="0.06"/><circle cx="1140" cy="540" r="1.4" fill="#F5F1EB" fill-opacity="0.06"/><circle cx="1170" cy="540" r="1.4" fill="#F5F1EB" fill-opacity="0.06"/>
  <g font-family="'JetBrains Mono', ui-monospace, 'SF Mono', Menlo, monospace">
    <circle cx="92" cy="96" r="7" fill="#E879A3"/>
    <text x="112" y="103" font-size="22" letter-spacing="4" fill="#F5F1EB" font-weight="700">resumax<tspan fill="#E879A3">.ai</tspan></text>
    <text x="90" y="168" font-size="18" letter-spacing="5" fill="#8A8A92">OPEN SOURCE · INTERNSHIPS</text>
  </g>
  <text x="88" y="332" font-family="'Inter', -apple-system, 'Segoe UI', Roboto, Arial, sans-serif" font-size="72" font-weight="800" letter-spacing="-1.8" fill="#F5F1EB">Tech Internships</text>
  <text x="90" y="390" font-family="'Inter', -apple-system, 'Segoe UI', Roboto, Arial, sans-serif" font-size="29" fill="#8A8A92">Software, data, and AI internships, updated daily. Tailor your resume to any.</text>
  <g transform="translate(90, 470)">
    <rect width="420" height="2" fill="#F5F1EB" fill-opacity="0.08"/>
  </g>
  <text x="90" y="520" font-family="'JetBrains Mono', ui-monospace, 'SF Mono', Menlo, monospace" font-size="22" fill="#E879A3">Learn the path · Build the proof · Land the role</text>
  <text x="90" y="560" font-family="'JetBrains Mono', ui-monospace, 'SF Mono', Menlo, monospace" font-size="18" fill="#8A8A92">Open source, free, by resumax.ai</text>
</svg>